# xmcd CD database file
#
# Track frame offsets:
#	150
#	16028
#	33794
#	47401
#
# Disc length: 820 seconds
#
# Revision: 2
# Processed by: cddbd v1.5.2PL0 Copyright (c) Steve Scherf et al.
# Submitted via: CDex 1.51
#
DISCID=1c033204
DTITLE=Aaron Sutcliffe - Elvis
DYEAR=1998
DGENRE=Blues
TTITLE0=Moody Blue
TTITLE1=You're the Devil in Disguise
TTITLE2=Money Honey
TTITLE3=His Latest Flame
EXTD=YEAR: 1998
EXTT0=
EXTT1=
EXTT2=
EXTT3=
PLAYORDER=
